<svg width="42" height="40" viewBox="0 0 42 40" xmlns="http://www.w3.org/2000/svg" xmlns:xlink="http://www.w3.org/1999/xlink"><title>periscope logo</title><defs><ellipse id="a" cx="20.8" cy="20" rx="20.8" ry="20"/></defs><g fill="none" fill-rule="evenodd"><mask id="b" fill="#fff"><use xlink:href="#a"/></mask><use fill="#35A3C6" xlink:href="#a"/><g mask="url(#b)"><path d="M30.27 17.763c0 7.26-7.704 15.237-9.634 15.237C18.706 33 11 25.022 11 17.763 11 12.37 15.314 8 20.636 8c5.321 0 9.635 4.371 9.635 9.763zm-9.634-5.891a5.74 5.74 0 0 0-1.346.16 2.393 2.393 0 0 1 1.324 2.146c0 1.321-1.057 2.393-2.36 2.393-1.256 0-2.28-.994-2.355-2.247a5.947 5.947 0 0 0-1.11 3.471c0 3.272 2.618 5.924 5.847 5.924 3.228 0 5.846-2.652 5.846-5.924 0-3.271-2.618-5.923-5.846-5.923z" fill="#FFF"/><path d="M20.636 11.872a5.74 5.74 0 0 0-1.346.16 2.393 2.393 0 0 1 1.324 2.146c0 1.321-1.057 2.393-2.36 2.393-1.256 0-2.28-.994-2.355-2.247a5.947 5.947 0 0 0-1.11 3.471c0 3.272 2.618 5.924 5.847 5.924 3.228 0 5.846-2.652 5.846-5.924 0-3.271-2.618-5.923-5.846-5.923z" fill="#E94F3C"/></g></g></svg>