<svg width="42" height="40" viewBox="0 0 42 40" xmlns="http://www.w3.org/2000/svg" xmlns:xlink="http://www.w3.org/1999/xlink"><title>youtube-logo</title><defs><ellipse id="a" cx="20.8" cy="20" rx="20.8" ry="20"/></defs><g fill="none" fill-rule="evenodd"><mask id="b" fill="#fff"><use xlink:href="#a"/></mask><use fill-opacity=".38" fill="#000" xlink:href="#a"/><g mask="url(#b)"><path d="M0 20C0 8.402 9.261-1 20.686-1 32.11-1 41.37 8.402 41.37 20s-9.26 21-20.684 21C9.26 41 0 31.598 0 20z" fill="#CE1312"/><path d="M31.452 15.773s-.216-1.577-.876-2.272c-.838-.912-1.777-.916-2.207-.97-3.084-.231-7.708-.231-7.708-.231h-.01s-4.625 0-7.708.232c-.431.053-1.37.057-2.208.969-.66.695-.875 2.272-.875 2.272s-.22 1.853-.22 3.705v1.736c0 1.853.22 3.705.22 3.705s.214 1.577.875 2.272c.838.912 1.94.884 2.43.979 1.762.176 7.49.23 7.49.23s4.63-.007 7.714-.239c.43-.054 1.37-.058 2.207-.97.66-.695.876-2.272.876-2.272s.22-1.852.22-3.705v-1.736c0-1.852-.22-3.705-.22-3.705z" fill="#FFF"/><path fill="#CE1312" d="M18.38 23.319v-6.432l5.953 3.227z"/></g></g></svg>