<?xml version="1.0" encoding="UTF-8" standalone="no"?>
<svg width="42px" height="40px" viewBox="0 0 42 40" version="1.1" xmlns="http://www.w3.org/2000/svg" xmlns:xlink="http://www.w3.org/1999/xlink">
    <!-- Generator: Sketch 41.2 (35397) - http://www.bohemiancoding.com/sketch -->
    <title>periscope logo</title>
    <desc>Created with Sketch.</desc>
    <defs>
        <ellipse id="path-1" cx="20.8" cy="20" rx="20.8" ry="20"></ellipse>
    </defs>
    <g id="Symbols" stroke="none" stroke-width="1" fill="none" fill-rule="evenodd">
        <g id="periscope-logo">
            <g>
                <mask id="mask-2" fill="white">
                    <use xlink:href="#path-1"></use>
                </mask>
                <use id="Mask" fill="#35A3C6" xlink:href="#path-1"></use>
                <g id="icon" mask="url(#mask-2)">
                    <g transform="translate(11.000000, 8.000000)">
                        <path d="M19.2708333,9.76286909 C19.2708333,17.0224031 11.5657575,25 9.6355015,25 C7.70541513,25 3.55271368e-15,17.0224031 3.55271368e-15,9.76286909 C3.55271368e-15,4.37095155 4.31385162,0 9.6355015,0 C14.957321,0 19.2708333,4.37095155 19.2708333,9.76286909 Z M9.6355015,3.87155667 C9.17215183,3.87155667 8.72203587,3.92777083 8.28990419,4.03108798 C9.07357762,4.42046127 9.61446329,5.23410532 9.61446329,6.17805619 C9.61446329,7.49934675 8.55729309,8.57051009 7.25326322,8.57051009 C5.99792663,8.57051009 4.97418004,7.5770495 4.89935866,6.32417862 C4.20170437,7.2997607 3.7892536,8.49830842 3.7892536,9.79518793 C3.7892536,13.0667831 6.40664481,15.7188192 9.6355015,15.7188192 C12.8643582,15.7188192 15.4817494,13.0667831 15.4817494,9.79518793 C15.4817494,6.52359276 12.8643582,3.87155667 9.6355015,3.87155667 Z" id="Periscope" fill="#FFFFFF"></path>
                        <path d="M9.6355015,3.87155667 C9.17215183,3.87155667 8.72203587,3.92777083 8.28990419,4.03108798 C9.07357762,4.42046127 9.61446329,5.23410532 9.61446329,6.17805619 C9.61446329,7.49934675 8.55729309,8.57051009 7.25326322,8.57051009 C5.99792663,8.57051009 4.97418004,7.5770495 4.89935866,6.32417862 C4.20170437,7.2997607 3.7892536,8.49830842 3.7892536,9.79518793 C3.7892536,13.0667831 6.40664481,15.7188192 9.6355015,15.7188192 C12.8643582,15.7188192 15.4817494,13.0667831 15.4817494,9.79518793 C15.4817494,6.52359276 12.8643582,3.87155667 9.6355015,3.87155667 L9.6355015,3.87155667 Z" id="Shape" fill="#E94F3C"></path>
                    </g>
                </g>
            </g>
        </g>
    </g>
</svg>