<?xml version="1.0" encoding="UTF-8" standalone="no"?>
<svg width="42px" height="40px" viewBox="0 0 42 40" version="1.1" xmlns="http://www.w3.org/2000/svg" xmlns:xlink="http://www.w3.org/1999/xlink">
    <!-- Generator: Sketch 41.2 (35397) - http://www.bohemiancoding.com/sketch -->
    <title>twitch-logo</title>
    <desc>Created with Sketch.</desc>
    <defs>
        <ellipse id="path-1" cx="20.8" cy="20" rx="20.8" ry="20"></ellipse>
    </defs>
    <g id="Symbols" stroke="none" stroke-width="1" fill="none" fill-rule="evenodd">
        <g id="twitch-logo">
            <g id="youtube-logo">
                <mask id="mask-2" fill="white">
                    <use xlink:href="#path-1"></use>
                </mask>
                <use id="Mask" fill="#6441A4" xlink:href="#path-1"></use>
                <g id="Glitch_White_RGB" mask="url(#mask-2)">
                    <g transform="translate(11.000000, 10.000000)" id="Layer_1">
                        <g>
                            <path d="M1.40625,0 L0,3.59375 L0,18.28125 L5,18.28125 L5,20.9375 L7.8125,20.9375 L10.46875,18.28125 L14.53125,18.28125 L20,12.8125 L20,0 L1.40625,0 Z M18.125,11.875 L15,15 L10,15 L7.34375,17.65625 L7.34375,15 L3.125,15 L3.125,1.875 L18.125,1.875 L18.125,11.875 Z M15,5.46875 L15,10.9375 L13.125,10.9375 L13.125,5.46875 L15,5.46875 Z M10,5.46875 L10,10.9375 L8.125,10.9375 L8.125,5.46875 L10,5.46875 Z" id="Shape" fill="#FFFFFF"></path>
                        </g>
                    </g>
                </g>
            </g>
        </g>
    </g>
</svg>