<?xml version="1.0" encoding="UTF-8" standalone="no"?>
<svg width="42px" height="40px" viewBox="0 0 42 40" version="1.1" xmlns="http://www.w3.org/2000/svg" xmlns:xlink="http://www.w3.org/1999/xlink">
    <!-- Generator: Sketch 41.2 (35397) - http://www.bohemiancoding.com/sketch -->
    <title>youtube-logo</title>
    <desc>Created with Sketch.</desc>
    <defs>
        <ellipse id="path-1" cx="20.8" cy="20" rx="20.8" ry="20"></ellipse>
    </defs>
    <g id="Symbols" stroke="none" stroke-width="1" fill="none" fill-rule="evenodd">
        <g id="youtube-logo">
            <g>
                <mask id="mask-2" fill="white">
                    <use xlink:href="#path-1"></use>
                </mask>
                <use id="Mask" fill-opacity="0.38" fill="#000000" xlink:href="#path-1"></use>
                <g id="Youtube" mask="url(#mask-2)">
                    <g transform="translate(0.000000, -1.000000)">
                        <path d="M0,21 C0,9.40201968 9.26125221,0 20.685587,0 C32.1099219,0 41.3711741,9.40201968 41.3711741,21 C41.3711741,32.5979803 32.1099219,42 20.685587,42 C9.26125221,42 0,32.5979803 0,21 Z" id="back" fill="#CE1312"></path>
                        <path d="M31.4518033,16.7729418 C31.4518033,16.7729418 31.2362951,15.1956325 30.576,14.5010441 C29.7380656,13.5889945 28.798918,13.5847025 28.3685902,13.5317679 C25.285377,13.3 20.6605574,13.3 20.6605574,13.3 L20.650918,13.3 C20.650918,13.3 16.0260984,13.3 12.9428852,13.5317679 C12.5118689,13.5847025 11.5734098,13.5889945 10.7347869,14.5010441 C10.0744918,15.1956325 9.85967213,16.7729418 9.85967213,16.7729418 C9.85967213,16.7729418 9.63934426,18.6256542 9.63934426,20.4776514 L9.63934426,22.2144799 C9.63934426,24.0671924 9.85967213,25.9191896 9.85967213,25.9191896 C9.85967213,25.9191896 10.0744918,27.4964989 10.7347869,28.1910872 C11.5734098,29.1031368 12.6743607,29.0745235 13.1645902,29.1696628 C14.9272131,29.3456347 20.6557377,29.4 20.6557377,29.4 C20.6557377,29.4 25.285377,29.3928467 28.3685902,29.1610788 C28.798918,29.1074288 29.7380656,29.1031368 30.576,28.1910872 C31.2362951,27.4964989 31.4518033,25.9191896 31.4518033,25.9191896 C31.4518033,25.9191896 31.6721311,24.0671924 31.6721311,22.2144799 L31.6721311,20.4776514 C31.6721311,18.6256542 31.4518033,16.7729418 31.4518033,16.7729418 L31.4518033,16.7729418 Z" id="Youtube" fill="#FFFFFF"></path>
                        <polygon id="Path" fill="#CE1312" points="18.3808525 24.3189896 18.3801639 17.8874306 24.3331475 21.1142978"></polygon>
                    </g>
                </g>
            </g>
        </g>
    </g>
</svg>