<?xml version="1.0" encoding="utf-8"?>
<!-- Generator: Adobe Illustrator 16.0.0, SVG Export Plug-In . SVG Version: 6.00 Build 0)  -->
<!DOCTYPE svg PUBLIC "-//W3C//DTD SVG 1.1//EN" "http://www.w3.org/Graphics/SVG/1.1/DTD/svg11.dtd">
<svg version="1.1" id="Livello_1" xmlns="http://www.w3.org/2000/svg" xmlns:xlink="http://www.w3.org/1999/xlink" x="0px" y="0px"
	 width="615.69px" height="512.5px" viewBox="0 0 615.69 512.5" enable-background="new 0 0 615.69 512.5" xml:space="preserve">
<g>
	<g>
		<defs>
			<rect id="SVGID_1_" x="51.845" y="0.25" width="512" height="512"/>
		</defs>
		<clipPath id="SVGID_2_">
			<use xlink:href="#SVGID_1_"  overflow="visible"/>
		</clipPath>
		<g clip-path="url(#SVGID_2_)">
			<defs>
				<rect id="SVGID_3_" x="51.845" y="0.25" width="512" height="512"/>
			</defs>
			<clipPath id="SVGID_4_">
				<use xlink:href="#SVGID_3_"  overflow="visible"/>
			</clipPath>
			<g clip-path="url(#SVGID_4_)">
				
					<image overflow="visible" width="512" height="512" xlink:href="4AB9050E1197B87F.png"  transform="matrix(1 0 0 1 51.8452 0.2495)">
				</image>
			</g>
		</g>
	</g>
	<g>
		<defs>
			<path id="SVGID_5_" d="M238.845,50.255c0-7.183,5.813-13.006,12.991-13.006h299.018c7.174,0,12.99,5.822,12.99,13.006v159.989
				c0,7.183-5.812,13.005-12.99,13.005H251.836c-7.175,0-12.991-5.822-12.991-13.005V50.255z"/>
		</defs>
		<clipPath id="SVGID_6_">
			<use xlink:href="#SVGID_5_"  overflow="visible"/>
		</clipPath>
		<g clip-path="url(#SVGID_6_)">
			<defs>
				<rect id="SVGID_7_" x="51.845" y="0.25" width="512" height="512"/>
			</defs>
			<clipPath id="SVGID_8_">
				<use xlink:href="#SVGID_7_"  overflow="visible"/>
			</clipPath>
			<rect x="233.845" y="32.25" clip-path="url(#SVGID_8_)" fill="#F4423F" width="335" height="196"/>
		</g>
	</g>
	<g>
		<defs>
			<rect id="SVGID_9_" x="51.845" y="0.25" width="512" height="512"/>
		</defs>
		<clipPath id="SVGID_10_">
			<use xlink:href="#SVGID_9_"  overflow="visible"/>
		</clipPath>
		<g clip-path="url(#SVGID_10_)">
			<text transform="matrix(1 0 0 1 270.3154 162.25)"><tspan x="0" y="0" fill="#FFFFFF" font-family="'Roboto-Bold'" font-size="120" letter-spacing="4">LIV</tspan><tspan x="191.018" y="0" fill="#FFFFFF" font-family="'Roboto-Bold'" font-size="120">E</tspan></text>
		</g>
	</g>
</g>
</svg>
